<svg width="14" height="14" viewBox="0 0 14 14" fill="none" xmlns="http://www.w3.org/2000/svg">
<g clip-path="url(#clip0_1222_32391)">
<path d="M12.1818 7.5H4.00183L3.00183 2.5H13.0018C13.075 2.50027 13.1471 2.51657 13.2133 2.54777C13.2794 2.57896 13.3379 2.62429 13.3846 2.68055C13.4314 2.7368 13.4652 2.80263 13.4837 2.87337C13.5022 2.94412 13.505 3.01806 13.4918 3.09L12.6718 7.09C12.6527 7.20565 12.5927 7.31062 12.5028 7.38584C12.4129 7.46107 12.299 7.50157 12.1818 7.5Z" stroke="#A2A2A2" stroke-linecap="round" stroke-linejoin="round"/>
<path d="M3.00183 2.5L2.58183 0.9C2.55878 0.787064 2.49741 0.68556 2.40812 0.612669C2.31883 0.539778 2.2071 0.499976 2.09183 0.5H0.501831" stroke="#A2A2A2" stroke-linecap="round" stroke-linejoin="round"/>
<path d="M4.00183 7.5L4.42183 9.6C4.44488 9.71294 4.50625 9.81444 4.59554 9.88733C4.68483 9.96022 4.79657 10 4.91183 10H11.0018" stroke="#A2A2A2" stroke-linecap="round" stroke-linejoin="round"/>
<path d="M10.5018 13.5C10.2257 13.5 10.0018 13.2761 10.0018 13C10.0018 12.7239 10.2257 12.5 10.5018 12.5C10.778 12.5 11.0018 12.7239 11.0018 13C11.0018 13.2761 10.778 13.5 10.5018 13.5Z" stroke="#A2A2A2" stroke-linecap="round" stroke-linejoin="round"/>
<path d="M5.50183 13.5C5.22569 13.5 5.00183 13.2761 5.00183 13C5.00183 12.7239 5.22569 12.5 5.50183 12.5C5.77797 12.5 6.00183 12.7239 6.00183 13C6.00183 13.2761 5.77797 13.5 5.50183 13.5Z" stroke="#A2A2A2" stroke-linecap="round" stroke-linejoin="round"/>
</g>
<defs>
<clipPath id="clip0_1222_32391">
<rect width="14" height="14" fill="white"/>
</clipPath>
</defs>
</svg>
